name Walk2.mot
datacolumns 19
datarows 25
range 2.47000000 2.59000000
endheader

                time	   L_ground_force_vx	   L_ground_force_vy	   L_ground_force_vz	   L_ground_force_px	   L_ground_force_py	   L_ground_force_pz	   R_ground_force_vx	   R_ground_force_vy	   R_ground_force_vz	   R_ground_force_px	   R_ground_force_py	   R_ground_force_pz	   L_ground_torque_x	   L_ground_torque_y	   L_ground_torque_z	   R_ground_torque_x	   R_ground_torque_y	   R_ground_torque_z	
          2.47000000	         11.98399742	         25.95367092	         -1.89094487	          0.34629434	          0.00000000	          0.12452823	          0.00000000	         -0.00000000	         -0.00000000	          0.00000000	          0.00000000	         -0.00000000	          0.00000000	         -0.04515373	          0.00000000	          0.00000000	         -0.00000000	          0.00000000	
          2.47500000	          5.81845794	         11.73740932	         -1.48615885	          0.27917427	          0.00000000	          0.10013218	          0.00000000	          0.00000000	          0.00000000	          0.00000000	          0.00000000	         -0.00000000	          0.00000000	         -0.01786788	          0.00000000	          0.00000000	          0.00000000	          0.00000000	
          2.48000000	          1.40420180	          1.69276123	         -1.10901477	          0.21406936	          0.00000000	          0.07657424	          0.00000000	          0.00000000	          0.00000000	          0.00000000	          0.00000000	         -0.00000000	          0.00000000	          0.00105201	          0.00000000	          0.00000000	          0.00000000	          0.00000000	
          2.48500000	         -1.53763053	         -4.88255395	         -0.77944992	          0.15538855	          0.00000000	          0.05541090	          0.00000000	          0.00000000	          0.00000000	          0.00000000	          0.00000000	         -0.00000000	          0.00000000	          0.01310177	          0.00000000	          0.00000000	          0.00000000	          0.00000000	
          2.49000000	         -3.30256263	         -8.71302522	         -0.50646130	          0.10546832	          0.00000000	          0.03745692	          0.00000000	          0.00000000	          0.00000000	          0.00000000	          0.00000000	         -0.00000000	          0.00000000	          0.01979286	          0.00000000	          0.00000000	          0.00000000	          0.00000000	
          2.49500000	         -4.17318663	        -10.48033730	         -0.29134402	          0.06511418	          0.00000000	          0.02298100	          0.00000000	          0.00000000	          0.00000000	          0.00000000	          0.00000000	         -0.00000000	          0.00000000	          0.02251834	          0.00000000	          0.00000000	          0.00000000	          0.00000000	
          2.50000000	         -4.40145233	        -10.78481234	         -0.13035169	          0.03408611	          0.00000000	          0.01188035	          0.00000000	          0.00000000	          0.00000000	         -0.00000000	          0.00000000	          0.00000000	          0.00000000	          0.02248522	          0.00000000	          0.00000000	          0.00000000	          0.00000000	
          2.50500000	         -4.19973304	        -10.12711803	         -0.01680118	          0.01149261	          0.00000000	          0.00382212	          0.00000000	          0.00000000	          0.00000000	         -0.00000000	          0.00000000	          0.00000000	          0.00000000	          0.02068567	          0.00000000	          0.00000000	          0.00000000	          0.00000000	
          2.51000000	         -3.73822626	         -8.90441882	          0.05734533	         -0.00390510	          0.00000000	         -0.00164774	          0.00000000	          0.00000000	          0.00000000	         -0.00000000	          0.00000000	          0.00000000	          0.00000000	          0.01789566	          0.00000000	          0.00000000	          0.00000000	          0.00000000	
          2.51500000	         -3.14662241	         -7.41609364	          0.10035873	         -0.01347050	          0.00000000	         -0.00502515	          0.00000000	          0.00000000	          0.00000000	         -0.00000000	          0.00000000	          0.00000000	          0.00000000	          0.01469116	          0.00000000	          0.00000000	          0.00000000	          0.00000000	
          2.52000000	         -2.51837853	         -5.87513620	          0.12000522	         -0.01853925	          0.00000000	         -0.00679358	          0.00000000	          0.00000000	          0.00000000	         -0.00000000	          0.00000000	          0.00000000	          0.00000000	          0.01147428	          0.00000000	          0.00000000	          0.00000000	          0.00000000	
          2.52500000	         -1.91632462	         -4.42229781	          0.12311318	         -0.02032351	          0.00000000	         -0.00739035	          0.00000000	          0.00000000	          0.00000000	         -0.00000000	          0.00000000	          0.00000000	          0.00000000	          0.00850388	          0.00000000	          0.00000000	          0.00000000	          0.00000000	
          2.53000000	         -1.37868099	         -3.14087041	          0.11536949	         -0.01986038	          0.00000000	         -0.00718856	          0.00000000	          0.00000000	          0.00000000	         -0.00000000	          0.00000000	          0.00000000	          0.00000000	          0.00592646	          0.00000000	          0.00000000	          0.00000000	          0.00000000	
          2.53500000	         -0.92486356	         -2.07071097	          0.10127928	         -0.01799267	          0.00000000	         -0.00649063	          0.00000000	          0.00000000	          0.00000000	         -0.00000000	          0.00000000	          0.00000000	          0.00000000	          0.00380491	          0.00000000	          0.00000000	          0.00000000	          0.00000000	
          2.54000000	         -0.56069370	         -1.22067025	          0.08423353	         -0.01537194	          0.00000000	         -0.00552973	         -0.00000000	          0.00000000	          0.00000000	         -0.00000000	          0.00000000	          0.00000000	          0.00000000	          0.00214347	          0.00000000	          0.00000000	          0.00000000	          0.00000000	
          2.54500000	         -0.28281454	         -0.57901534	          0.06664057	         -0.01247558	          0.00000000	         -0.00447619	         -0.00000000	         -0.00000000	         -0.00000000	         -0.00000000	          0.00000000	          0.00000000	          0.00000000	          0.00090850	          0.00000000	          0.00000000	         -0.00000000	          0.00000000	
          2.55000000	         -0.08224880	         -0.12174137	          0.05008808	         -0.00963153	          0.00000000	         -0.00344656	         -0.00000000	         -0.00000000	         -0.00000000	         -0.00000000	          0.00000000	          0.00000000	          0.00000000	          0.00004469	          0.00000000	          0.00000000	         -0.00000000	          0.00000000	
          2.55500000	          0.05287501	          0.18112784	          0.03551193	         -0.00704596	          0.00000000	         -0.00251370	         -0.00000000	         -0.00000000	         -0.00000000	         -0.00000000	          0.00000000	          0.00000000	          0.00000000	         -0.00051279	          0.00000000	          0.00000000	         -0.00000000	          0.00000000	
          2.56000000	          0.13534551	          0.36102697	          0.02335596	         -0.00483064	          0.00000000	         -0.00171667	         -0.00000000	         -0.00000000	         -0.00000000	         -0.00000000	          0.00000000	          0.00000000	          0.00000000	         -0.00082974	          0.00000000	          0.00000000	         -0.00000000	          0.00000000	
          2.56500000	          0.17752806	          0.44783994	          0.01371340	         -0.00302795	          0.00000000	         -0.00106978	         -0.00000000	         -0.00000000	         -0.00000000	         -0.00000000	          0.00000000	          0.00000000	          0.00000000	         -0.00096737	          0.00000000	          0.00000000	         -0.00000000	          0.00000000	
          2.57000000	          0.19053858	          0.46809268	          0.00644525	         -0.00163244	          0.00000000	         -0.00057034	         -0.00000000	         -0.00000000	         -0.00000000	          0.00000000	          0.00000000	         -0.00000000	          0.00000000	         -0.00097912	          0.00000000	          0.00000000	         -0.00000000	          0.00000000	
          2.57500000	          0.18381268	          0.44405991	          0.00127458	         -0.00060843	          0.00000000	         -0.00020495	         -0.00000000	         -0.00000000	         -0.00000000	          0.00000000	          0.00000000	         -0.00000000	          0.00000000	         -0.00090922	          0.00000000	          0.00000000	         -0.00000000	          0.00000000	
          2.58000000	          0.16496213	          0.39352838	         -0.00214207	          0.00009638	          0.00000000	          0.00004558	         -0.00000000	         -0.00000000	         -0.00000000	          0.00000000	          0.00000000	         -0.00000000	          0.00000000	         -0.00079249	          0.00000000	          0.00000000	         -0.00000000	          0.00000000	
          2.58500000	          0.13982713	          0.33000016	         -0.00416369	          0.00054073	          0.00000000	          0.00020263	         -0.00000000	         -0.00000000	         -0.00000000	          0.00000000	          0.00000000	         -0.00000000	          0.00000000	         -0.00065495	          0.00000000	          0.00000000	         -0.00000000	          0.00000000	
          2.59000000	          0.11264990	          0.26316172	         -0.00513082	          0.00078292	          0.00000000	          0.00028732	         -0.00000000	         -0.00000000	         -0.00000000	          0.00000000	          0.00000000	         -0.00000000	          0.00000000	         -0.00051495	          0.00000000	          0.00000000	         -0.00000000	          0.00000000	
